<?xml version="1.0" encoding="UTF-8" standalone="no"?>
<svg width="278px" height="144px" viewBox="0 0 278 144" version="1.1" xmlns="http://www.w3.org/2000/svg" xmlns:xlink="http://www.w3.org/1999/xlink">
    <!-- Generator: Sketch 3.6.1 (26313) - http://www.bohemiancoding.com/sketch -->
    <title>basic info copy 3</title>
    <desc>Created with Sketch.</desc>
    <defs></defs>
    <g id="Page-4" stroke="none" stroke-width="1" fill="none" fill-rule="evenodd">
        <g id="basic-info-copy-3" transform="translate(3.000000, 3.000000)">
            <g id="age" transform="translate(0.000000, 37.000000)">
                <path d="M25.8066029,1.99840924 C28.6748369,0.342433543 33.3281149,0.344137751 36.1933971,1.99840924 L56.117492,13.5015908 C58.985726,15.1575665 61.3108891,19.1882755 61.3108891,22.4968185 L61.3108891,45.5031815 C61.3108891,48.8151329 58.9827743,52.8441378 56.117492,54.4984092 L36.1933971,66.0015908 C33.3251631,67.6575665 28.6718851,67.6558622 25.8066029,66.0015908 L5.88250801,54.4984092 C3.01427397,52.8424335 0.689110868,48.8117245 0.689110868,45.5031815 L0.689110868,22.4968185 C0.689110868,19.1848671 3.01722574,15.1558622 5.88250801,13.5015908 L25.8066029,1.99840924 Z" id="frame" stroke="#FFFFFF" stroke-width="3" fill="#257E62"></path>
                <text id="28" font-family="OpenSans-Bold, Open Sans" font-size="24" font-weight="bold" fill="#FFFFFF">
                    <tspan x="17.3007812" y="41">28</tspan>
                </text>
            </g>
            <g id="rating" transform="translate(75.000000, 0.000000)">
                <path d="M55.8052149,1.99921059 C58.6742155,0.34279232 63.320827,0.339930083 66.1947851,1.99921059 L116.426993,31.0007894 C119.295994,32.6572077 121.621778,36.6798602 121.621778,39.9984212 L121.621778,98.0015788 C121.621778,101.314415 119.300951,105.33993 116.426993,106.999211 L66.1947851,136.000789 C63.3257845,137.657208 58.679173,137.66007 55.8052149,136.000789 L5.57300686,106.999211 C2.70400626,105.342792 0.378221735,101.32014 0.378221735,98.0015788 L0.378221735,39.9984212 C0.378221735,36.6855846 2.69904872,32.6600699 5.57300686,31.0007894 L55.8052149,1.99921059 Z" id="frame" stroke="#FFFFFF" stroke-width="3" fill="#257E62"></path>
                <text id="STARS" font-family="OpenSans-Bold, Open Sans" font-size="24" font-weight="bold" fill="#FFFFFF">
                    <tspan x="25.96875" y="97">STARS</tspan>
                </text>
                <text id="5,0" font-family="OpenSans-Bold, Open Sans" font-size="42" font-weight="bold" fill="#FFFFFF">
                    <tspan x="30.9355469" y="69">5,0</tspan>
                </text>
            </g>
            <g id="gender" transform="translate(210.000000, 37.000000)" stroke="#FFFFFF" stroke-width="3" fill="#257E62">
                <path d="M25.8066029,1.99840924 C28.6748369,0.342433543 33.3281149,0.344137751 36.1933971,1.99840924 L56.117492,13.5015908 C58.985726,15.1575665 61.3108891,19.1882755 61.3108891,22.4968185 L61.3108891,45.5031815 C61.3108891,48.8151329 58.9827743,52.8441378 56.117492,54.4984092 L36.1933971,66.0015908 C33.3251631,67.6575665 28.6718851,67.6558622 25.8066029,66.0015908 L5.88250801,54.4984092 C3.01427397,52.8424335 0.689110868,48.8117245 0.689110868,45.5031815 L0.689110868,22.4968185 C0.689110868,19.1848671 3.01722574,15.1558622 5.88250801,13.5015908 L25.8066029,1.99840924 Z" id="frame"></path>
            </g>
            <g id="Stroke-1512-+-Stroke-1513-+-Stroke-1514" transform="translate(234.000000, 59.000000)" stroke="#FFFFFF" stroke-width="3" stroke-linecap="round" stroke-linejoin="round">
                <path d="M14,7 C14,10.866 10.8655,14 7,14 C3.134,14 0,10.866 0,7 C0,3.134 3.134,0 7,0 C10.8655,0 14,3.134 14,7 L14,7 Z" id="Stroke-1512"></path>
                <path d="M7,14 L7,23" id="Stroke-1513"></path>
                <path d="M4,20 L10,20" id="Stroke-1514"></path>
            </g>
        </g>
    </g>
</svg>