<?xml version="1.0" encoding="UTF-8" standalone="no"?>
<svg width="278px" height="144px" viewBox="0 0 278 144" version="1.1" xmlns="http://www.w3.org/2000/svg" xmlns:xlink="http://www.w3.org/1999/xlink">
    <!-- Generator: Sketch 3.6.1 (26313) - http://www.bohemiancoding.com/sketch -->
    <title>basic info copy 2</title>
    <desc>Created with Sketch.</desc>
    <defs></defs>
    <g id="Page-4" stroke="none" stroke-width="1" fill="none" fill-rule="evenodd">
        <g id="basic-info-copy-2" transform="translate(3.000000, 3.000000)">
            <g id="age" transform="translate(0.000000, 37.000000)">
                <path d="M25.8066029,1.99840924 C28.6748369,0.342433543 33.3281149,0.344137751 36.1933971,1.99840924 L56.117492,13.5015908 C58.985726,15.1575665 61.3108891,19.1882755 61.3108891,22.4968185 L61.3108891,45.5031815 C61.3108891,48.8151329 58.9827743,52.8441378 56.117492,54.4984092 L36.1933971,66.0015908 C33.3251631,67.6575665 28.6718851,67.6558622 25.8066029,66.0015908 L5.88250801,54.4984092 C3.01427397,52.8424335 0.689110868,48.8117245 0.689110868,45.5031815 L0.689110868,22.4968185 C0.689110868,19.1848671 3.01722574,15.1558622 5.88250801,13.5015908 L25.8066029,1.99840924 Z" id="frame" stroke="#FFFFFF" stroke-width="3" fill="#257E62"></path>
                <text id="36" font-family="OpenSans-Bold, Open Sans" font-size="24" font-weight="bold" fill="#FFFFFF">
                    <tspan x="17.3007812" y="41">36</tspan>
                </text>
            </g>
            <g id="rating" transform="translate(75.000000, 0.000000)">
                <path d="M55.8052149,1.99921059 C58.6742155,0.34279232 63.320827,0.339930083 66.1947851,1.99921059 L116.426993,31.0007894 C119.295994,32.6572077 121.621778,36.6798602 121.621778,39.9984212 L121.621778,98.0015788 C121.621778,101.314415 119.300951,105.33993 116.426993,106.999211 L66.1947851,136.000789 C63.3257845,137.657208 58.679173,137.66007 55.8052149,136.000789 L5.57300686,106.999211 C2.70400626,105.342792 0.378221735,101.32014 0.378221735,98.0015788 L0.378221735,39.9984212 C0.378221735,36.6855846 2.69904872,32.6600699 5.57300686,31.0007894 L55.8052149,1.99921059 Z" id="frame" stroke="#FFFFFF" stroke-width="3" fill="#257E62"></path>
                <text id="STARS" font-family="OpenSans-Bold, Open Sans" font-size="24" font-weight="bold" fill="#FFFFFF">
                    <tspan x="25.96875" y="97">STARS</tspan>
                </text>
                <text id="3,8" font-family="OpenSans-Bold, Open Sans" font-size="42" font-weight="bold" fill="#FFFFFF">
                    <tspan x="30.9355469" y="69">3,8</tspan>
                </text>
            </g>
            <g id="gender" transform="translate(210.000000, 37.000000)">
                <path d="M25.8066029,1.99840924 C28.6748369,0.342433543 33.3281149,0.344137751 36.1933971,1.99840924 L56.117492,13.5015908 C58.985726,15.1575665 61.3108891,19.1882755 61.3108891,22.4968185 L61.3108891,45.5031815 C61.3108891,48.8151329 58.9827743,52.8441378 56.117492,54.4984092 L36.1933971,66.0015908 C33.3251631,67.6575665 28.6718851,67.6558622 25.8066029,66.0015908 L5.88250801,54.4984092 C3.01427397,52.8424335 0.689110868,48.8117245 0.689110868,45.5031815 L0.689110868,22.4968185 C0.689110868,19.1848671 3.01722574,15.1558622 5.88250801,13.5015908 L25.8066029,1.99840924 Z" id="frame" stroke="#FFFFFF" stroke-width="3" fill="#257E62"></path>
                <path d="M35.5,37 C35.5,40.5897601 32.5898857,43.5 29,43.5 C25.4101143,43.5 22.5,40.5897601 22.5,37 C22.5,33.4102399 25.4101143,30.5 29,30.5 C32.5898857,30.5 35.5,33.4102399 35.5,37 L35.5,37 Z M38.5,37 C38.5,31.7534147 34.2467689,27.5 29,27.5 C23.7532311,27.5 19.5,31.7534147 19.5,37 C19.5,42.2465853 23.7532311,46.5 29,46.5 C34.2467689,46.5 38.5,42.2465853 38.5,37 L38.5,37 Z M35.7065102,32.4149102 L45.0605102,23.0609102 C45.6462966,22.4751237 45.6462966,21.5253763 45.0605102,20.9395898 C44.4747237,20.3538034 43.5249763,20.3538034 42.9391898,20.9395898 L33.5851898,30.2935898 C32.9994034,30.8793763 32.9994034,31.8291237 33.5851898,32.4149102 C34.1709763,33.0006966 35.1207237,33.0006966 35.7065102,32.4149102 L35.7065102,32.4149102 Z M45.5,29 L45.5,22 C45.5,21.1715729 44.8284271,20.5 44,20.5 L37,20.5 C36.1715729,20.5 35.5,21.1715729 35.5,22 C35.5,22.8284271 36.1715729,23.5 37,23.5 L44,23.5 L42.5,22 L42.5,29 C42.5,29.8284271 43.1715729,30.5 44,30.5 C44.8284271,30.5 45.5,29.8284271 45.5,29 L45.5,29 Z" id="icon_male" fill="#FFFFFF"></path>
            </g>
        </g>
    </g>
</svg>